# xmcd
#
# Track frame offsets:
#	182
#	13107
#	23965
#	37767
#	49512
#	60862
#	73797
#	84232
#	96555
#	108817
#	119865
#	132752
#	143670
#	155782
#	167172
#	178007
#	189287
#	202405
#	214035
#	226397
#	238640
#	251847
#	262095
#
# Disc length: 3645 seconds
#
# Revision: 1
# Processed by: cddbd v1.5.2PL0 Copyright (c) Steve Scherf et al.
# Submitted via: EasyCDDAExtractor 16.0.0.1
#
DISCID=4a0e3b17
DTITLE=Billy Walker - Cross The Brazos At Waco Vol 2
DYEAR=1993
DGENRE=Country
TTITLE0=Back Street Affair
TTITLE1=You Can Talk Me Out Of Anything (But You)
TTITLE2=True Love's So Hard To Find
TTITLE3=You Have My Heart Now
TTITLE4=You Know You Did
TTITLE5=The One You Hurt
TTITLE6=I Can Tell
TTITLE7=I Had A Dream
TTITLE8=I'm Looking For Love
TTITLE9=Gal About Town
TTITLE10=I Didn't Have The Nerve It Took To Go
TTITLE11=Don't Let Your Pride Break Your Heart
TTITLE12=Mexican Joe
TTITLE13=Time Will Tell
TTITLE14=Headin' For Heartaches
TTITLE15=It Hurts Too Much To Laugh (And I'm Too Big To Cry)
TTITLE16=I Got Lost Along The Way
TTITLE17=I Can't Keep The Girls Away
TTITLE18=Thank You For Calling
TTITLE19=Candle Light
TTITLE20=Pretned You Just Don't Knoe Me
TTITLE21=I'm A Fool To Care
TTITLE22=Going-Going-Gone
EXTD=
EXTT0=
EXTT1=
EXTT2=
EXTT3=
EXTT4=
EXTT5=
EXTT6=
EXTT7=
EXTT8=
EXTT9=
EXTT10=
EXTT11=
EXTT12=
EXTT13=
EXTT14=
EXTT15=
EXTT16=
EXTT17=
EXTT18=
EXTT19=
EXTT20=
EXTT21=
EXTT22=
PLAYORDER=
